<svg xmlns="http://www.w3.org/2000/svg" xmlns:xlink="http://www.w3.org/1999/xlink" width="100" zoomAndPan="magnify" viewBox="0 0 75 30.000001" height="40" preserveAspectRatio="xMidYMid meet" version="1.0"><defs><g/></defs><g fill="#ff8d55" fill-opacity="0.4"><g transform="translate(1.890789, 20.125466)"><g><path d="M 6.90625 -2.34375 L 8.09375 -1.171875 C 7.707031 -0.785156 7.25 -0.476562 6.71875 -0.25 C 6.195312 -0.0195312 5.640625 0.09375 5.046875 0.09375 C 4.453125 0.09375 3.894531 -0.015625 3.375 -0.234375 C 2.851562 -0.460938 2.394531 -0.773438 2 -1.171875 C 1.601562 -1.566406 1.289062 -2.019531 1.0625 -2.53125 C 0.84375 -3.050781 0.734375 -3.613281 0.734375 -4.21875 C 0.734375 -4.8125 0.84375 -5.367188 1.0625 -5.890625 C 1.289062 -6.410156 1.601562 -6.863281 2 -7.25 C 2.394531 -7.644531 2.851562 -7.953125 3.375 -8.171875 C 3.894531 -8.398438 4.453125 -8.515625 5.046875 -8.515625 C 5.640625 -8.515625 6.195312 -8.398438 6.71875 -8.171875 C 7.25 -7.953125 7.707031 -7.644531 8.09375 -7.25 L 6.90625 -6.078125 C 6.6875 -6.335938 6.414062 -6.539062 6.09375 -6.6875 C 5.78125 -6.832031 5.429688 -6.90625 5.046875 -6.90625 C 4.554688 -6.90625 4.117188 -6.785156 3.734375 -6.546875 C 3.347656 -6.304688 3.046875 -5.976562 2.828125 -5.5625 C 2.609375 -5.15625 2.5 -4.707031 2.5 -4.21875 C 2.5 -3.71875 2.609375 -3.265625 2.828125 -2.859375 C 3.046875 -2.453125 3.347656 -2.125 3.734375 -1.875 C 4.117188 -1.632812 4.554688 -1.515625 5.046875 -1.515625 C 5.429688 -1.515625 5.78125 -1.585938 6.09375 -1.734375 C 6.414062 -1.878906 6.6875 -2.082031 6.90625 -2.34375 Z M 6.90625 -2.34375 "/></g></g></g><g fill="#ff8d55" fill-opacity="0.4"><g transform="translate(10.725356, 20.125466)"><g><path d="M 5.703125 0 L 5.09375 -2.09375 L 3.015625 -2.09375 L 2.390625 0 L 0.734375 0 L 3.21875 -8.421875 L 4.875 -8.421875 L 4.875 -8.40625 L 7.34375 0 Z M 3.46875 -3.671875 L 4.625 -3.671875 L 4.046875 -5.625 Z M 3.46875 -3.671875 "/></g></g></g><g fill="#ff8d55" fill-opacity="0.4"><g transform="translate(18.812301, 20.125466)"><g><path d="M 4.234375 0.109375 C 4.066406 0.109375 3.828125 0.0859375 3.515625 0.046875 C 3.203125 0.015625 2.867188 -0.0625 2.515625 -0.1875 C 2.160156 -0.3125 1.820312 -0.503906 1.5 -0.765625 C 1.195312 -1.015625 0.941406 -1.289062 0.734375 -1.59375 L 2.015625 -2.46875 C 2.085938 -2.375 2.160156 -2.285156 2.234375 -2.203125 C 2.304688 -2.117188 2.390625 -2.039062 2.484375 -1.96875 C 2.660156 -1.820312 2.851562 -1.710938 3.0625 -1.640625 C 3.28125 -1.566406 3.484375 -1.515625 3.671875 -1.484375 C 3.867188 -1.460938 4.03125 -1.453125 4.15625 -1.453125 C 4.28125 -1.453125 4.34375 -1.453125 4.34375 -1.453125 L 4.40625 -1.453125 C 4.84375 -1.453125 5.175781 -1.546875 5.40625 -1.734375 C 5.644531 -1.921875 5.773438 -2.128906 5.796875 -2.359375 C 5.804688 -2.609375 5.675781 -2.851562 5.40625 -3.09375 C 5.132812 -3.34375 4.691406 -3.507812 4.078125 -3.59375 C 3.148438 -3.6875 2.410156 -3.988281 1.859375 -4.5 C 1.585938 -4.75 1.382812 -5.03125 1.25 -5.34375 C 1.113281 -5.664062 1.054688 -6 1.078125 -6.34375 C 1.117188 -6.726562 1.265625 -7.09375 1.515625 -7.4375 C 1.765625 -7.789062 2.132812 -8.066406 2.625 -8.265625 C 3.125 -8.472656 3.75 -8.554688 4.5 -8.515625 C 4.832031 -8.515625 5.164062 -8.472656 5.5 -8.390625 C 5.832031 -8.304688 6.140625 -8.195312 6.421875 -8.0625 C 6.710938 -7.925781 6.957031 -7.785156 7.15625 -7.640625 L 6.25 -6.375 C 6.125 -6.476562 5.960938 -6.570312 5.765625 -6.65625 C 5.566406 -6.75 5.351562 -6.820312 5.125 -6.875 C 4.90625 -6.9375 4.6875 -6.96875 4.46875 -6.96875 L 4.4375 -6.96875 C 3.863281 -7 3.421875 -6.929688 3.109375 -6.765625 C 2.804688 -6.609375 2.644531 -6.425781 2.625 -6.21875 C 2.613281 -6.019531 2.6875 -5.84375 2.84375 -5.6875 C 3 -5.539062 3.203125 -5.421875 3.453125 -5.328125 C 3.710938 -5.234375 3.976562 -5.164062 4.25 -5.125 L 4.265625 -5.125 C 5.003906 -5.03125 5.601562 -4.832031 6.0625 -4.53125 C 6.53125 -4.238281 6.863281 -3.882812 7.0625 -3.46875 C 7.269531 -3.0625 7.363281 -2.65625 7.34375 -2.25 C 7.320312 -1.863281 7.191406 -1.488281 6.953125 -1.125 C 6.722656 -0.769531 6.394531 -0.476562 5.96875 -0.25 C 5.539062 -0.0195312 5.023438 0.0976562 4.421875 0.109375 Z M 4.234375 0.109375 "/></g></g></g><g fill="#ff8d55" fill-opacity="0.4"><g transform="translate(26.888717, 20.125466)"><g><path d="M 5.703125 0 L 5.09375 -2.09375 L 3.015625 -2.09375 L 2.390625 0 L 0.734375 0 L 3.21875 -8.421875 L 4.875 -8.421875 L 4.875 -8.40625 L 7.34375 0 Z M 3.46875 -3.671875 L 4.625 -3.671875 L 4.046875 -5.625 Z M 3.46875 -3.671875 "/></g></g></g><g fill="#ff8d55" fill-opacity="0.4"><g transform="translate(34.975662, 20.125466)"><g><path d="M 2.3125 -1.5625 L 5.609375 -1.5625 L 5.609375 0 L 0.734375 0 L 0.734375 -8.421875 L 2.3125 -8.421875 Z M 2.3125 -1.5625 "/></g></g></g><g fill="#ff8d55" fill-opacity="0.4"><g transform="translate(41.325178, 20.125466)"><g><path d="M 2.3125 -0.03125 L 2.3125 -8.421875 L 0.734375 -8.421875 L 0.734375 -0.03125 Z M 2.3125 -0.03125 "/></g></g></g><g fill="#ff8d55" fill-opacity="0.4"><g transform="translate(44.378843, 20.125466)"><g><path d="M 5.734375 -8.421875 L 7.3125 -8.421875 L 7.3125 0 L 5.34375 0 L 2.3125 -5.28125 L 2.3125 0 L 0.734375 0 L 0.734375 -8.421875 L 2.46875 -8.421875 L 5.734375 -2.734375 Z M 5.734375 -8.421875 "/></g></g></g><g fill="#ffffff" fill-opacity="1"><g transform="translate(2.505354, 19.889557)"><g><path d="M 6.90625 -2.34375 L 8.09375 -1.171875 C 7.707031 -0.785156 7.25 -0.476562 6.71875 -0.25 C 6.195312 -0.0195312 5.640625 0.09375 5.046875 0.09375 C 4.453125 0.09375 3.894531 -0.015625 3.375 -0.234375 C 2.851562 -0.460938 2.394531 -0.773438 2 -1.171875 C 1.601562 -1.566406 1.289062 -2.019531 1.0625 -2.53125 C 0.84375 -3.050781 0.734375 -3.613281 0.734375 -4.21875 C 0.734375 -4.8125 0.84375 -5.367188 1.0625 -5.890625 C 1.289062 -6.410156 1.601562 -6.863281 2 -7.25 C 2.394531 -7.644531 2.851562 -7.953125 3.375 -8.171875 C 3.894531 -8.398438 4.453125 -8.515625 5.046875 -8.515625 C 5.640625 -8.515625 6.195312 -8.398438 6.71875 -8.171875 C 7.25 -7.953125 7.707031 -7.644531 8.09375 -7.25 L 6.90625 -6.078125 C 6.6875 -6.335938 6.414062 -6.539062 6.09375 -6.6875 C 5.78125 -6.832031 5.429688 -6.90625 5.046875 -6.90625 C 4.554688 -6.90625 4.117188 -6.785156 3.734375 -6.546875 C 3.347656 -6.304688 3.046875 -5.976562 2.828125 -5.5625 C 2.609375 -5.15625 2.5 -4.707031 2.5 -4.21875 C 2.5 -3.71875 2.609375 -3.265625 2.828125 -2.859375 C 3.046875 -2.453125 3.347656 -2.125 3.734375 -1.875 C 4.117188 -1.632812 4.554688 -1.515625 5.046875 -1.515625 C 5.429688 -1.515625 5.78125 -1.585938 6.09375 -1.734375 C 6.414062 -1.878906 6.6875 -2.082031 6.90625 -2.34375 Z M 6.90625 -2.34375 "/></g></g></g><g fill="#ffffff" fill-opacity="1"><g transform="translate(11.339921, 19.889557)"><g><path d="M 5.703125 0 L 5.09375 -2.09375 L 3.015625 -2.09375 L 2.390625 0 L 0.734375 0 L 3.21875 -8.421875 L 4.875 -8.421875 L 4.875 -8.40625 L 7.34375 0 Z M 3.46875 -3.671875 L 4.625 -3.671875 L 4.046875 -5.625 Z M 3.46875 -3.671875 "/></g></g></g><g fill="#ffffff" fill-opacity="1"><g transform="translate(19.426866, 19.889557)"><g><path d="M 4.234375 0.109375 C 4.066406 0.109375 3.828125 0.0859375 3.515625 0.046875 C 3.203125 0.015625 2.867188 -0.0625 2.515625 -0.1875 C 2.160156 -0.3125 1.820312 -0.503906 1.5 -0.765625 C 1.195312 -1.015625 0.941406 -1.289062 0.734375 -1.59375 L 2.015625 -2.46875 C 2.085938 -2.375 2.160156 -2.285156 2.234375 -2.203125 C 2.304688 -2.117188 2.390625 -2.039062 2.484375 -1.96875 C 2.660156 -1.820312 2.851562 -1.710938 3.0625 -1.640625 C 3.28125 -1.566406 3.484375 -1.515625 3.671875 -1.484375 C 3.867188 -1.460938 4.03125 -1.453125 4.15625 -1.453125 C 4.28125 -1.453125 4.34375 -1.453125 4.34375 -1.453125 L 4.40625 -1.453125 C 4.84375 -1.453125 5.175781 -1.546875 5.40625 -1.734375 C 5.644531 -1.921875 5.773438 -2.128906 5.796875 -2.359375 C 5.804688 -2.609375 5.675781 -2.851562 5.40625 -3.09375 C 5.132812 -3.34375 4.691406 -3.507812 4.078125 -3.59375 C 3.148438 -3.6875 2.410156 -3.988281 1.859375 -4.5 C 1.585938 -4.75 1.382812 -5.03125 1.25 -5.34375 C 1.113281 -5.664062 1.054688 -6 1.078125 -6.34375 C 1.117188 -6.726562 1.265625 -7.09375 1.515625 -7.4375 C 1.765625 -7.789062 2.132812 -8.066406 2.625 -8.265625 C 3.125 -8.472656 3.75 -8.554688 4.5 -8.515625 C 4.832031 -8.515625 5.164062 -8.472656 5.5 -8.390625 C 5.832031 -8.304688 6.140625 -8.195312 6.421875 -8.0625 C 6.710938 -7.925781 6.957031 -7.785156 7.15625 -7.640625 L 6.25 -6.375 C 6.125 -6.476562 5.960938 -6.570312 5.765625 -6.65625 C 5.566406 -6.75 5.351562 -6.820312 5.125 -6.875 C 4.90625 -6.9375 4.6875 -6.96875 4.46875 -6.96875 L 4.4375 -6.96875 C 3.863281 -7 3.421875 -6.929688 3.109375 -6.765625 C 2.804688 -6.609375 2.644531 -6.425781 2.625 -6.21875 C 2.613281 -6.019531 2.6875 -5.84375 2.84375 -5.6875 C 3 -5.539062 3.203125 -5.421875 3.453125 -5.328125 C 3.710938 -5.234375 3.976562 -5.164062 4.25 -5.125 L 4.265625 -5.125 C 5.003906 -5.03125 5.601562 -4.832031 6.0625 -4.53125 C 6.53125 -4.238281 6.863281 -3.882812 7.0625 -3.46875 C 7.269531 -3.0625 7.363281 -2.65625 7.34375 -2.25 C 7.320312 -1.863281 7.191406 -1.488281 6.953125 -1.125 C 6.722656 -0.769531 6.394531 -0.476562 5.96875 -0.25 C 5.539062 -0.0195312 5.023438 0.0976562 4.421875 0.109375 Z M 4.234375 0.109375 "/></g></g></g><g fill="#ffffff" fill-opacity="1"><g transform="translate(27.503282, 19.889557)"><g><path d="M 5.703125 0 L 5.09375 -2.09375 L 3.015625 -2.09375 L 2.390625 0 L 0.734375 0 L 3.21875 -8.421875 L 4.875 -8.421875 L 4.875 -8.40625 L 7.34375 0 Z M 3.46875 -3.671875 L 4.625 -3.671875 L 4.046875 -5.625 Z M 3.46875 -3.671875 "/></g></g></g><g fill="#ffffff" fill-opacity="1"><g transform="translate(35.590227, 19.889557)"><g><path d="M 2.3125 -1.5625 L 5.609375 -1.5625 L 5.609375 0 L 0.734375 0 L 0.734375 -8.421875 L 2.3125 -8.421875 Z M 2.3125 -1.5625 "/></g></g></g><g fill="#ffffff" fill-opacity="1"><g transform="translate(41.939743, 19.889557)"><g><path d="M 2.3125 -0.03125 L 2.3125 -8.421875 L 0.734375 -8.421875 L 0.734375 -0.03125 Z M 2.3125 -0.03125 "/></g></g></g><g fill="#ffffff" fill-opacity="1"><g transform="translate(44.993408, 19.889557)"><g><path d="M 5.734375 -8.421875 L 7.3125 -8.421875 L 7.3125 0 L 5.34375 0 L 2.3125 -5.28125 L 2.3125 0 L 0.734375 0 L 0.734375 -8.421875 L 2.46875 -8.421875 L 5.734375 -2.734375 Z M 5.734375 -8.421875 "/></g></g></g><g fill="#ff8d55" fill-opacity="0.4"><g transform="translate(52.436404, 20.125466)"><g><path d="M 9.296875 -4.921875 C 9.304688 -4.804688 9.316406 -4.6875 9.328125 -4.5625 C 9.347656 -4.4375 9.359375 -4.316406 9.359375 -4.203125 C 9.359375 -3.609375 9.242188 -3.050781 9.015625 -2.53125 C 8.785156 -2.007812 8.472656 -1.550781 8.078125 -1.15625 C 7.691406 -0.757812 7.238281 -0.445312 6.71875 -0.21875 C 6.195312 0 5.640625 0.109375 5.046875 0.109375 C 4.453125 0.109375 3.894531 0 3.375 -0.21875 C 2.851562 -0.445312 2.394531 -0.757812 2 -1.15625 C 1.601562 -1.550781 1.289062 -2.007812 1.0625 -2.53125 C 0.84375 -3.050781 0.734375 -3.609375 0.734375 -4.203125 C 0.734375 -4.796875 0.84375 -5.351562 1.0625 -5.875 C 1.289062 -6.394531 1.601562 -6.847656 2 -7.234375 C 2.394531 -7.628906 2.851562 -7.941406 3.375 -8.171875 C 3.894531 -8.398438 4.453125 -8.515625 5.046875 -8.515625 C 5.523438 -8.515625 5.976562 -8.4375 6.40625 -8.28125 C 6.84375 -8.132812 7.242188 -7.929688 7.609375 -7.671875 L 6.421875 -6.484375 C 6.023438 -6.753906 5.566406 -6.890625 5.046875 -6.890625 C 4.554688 -6.890625 4.117188 -6.769531 3.734375 -6.53125 C 3.347656 -6.289062 3.046875 -5.96875 2.828125 -5.5625 C 2.609375 -5.15625 2.5 -4.703125 2.5 -4.203125 C 2.5 -3.710938 2.609375 -3.257812 2.828125 -2.84375 C 3.046875 -2.4375 3.347656 -2.109375 3.734375 -1.859375 C 4.117188 -1.617188 4.554688 -1.5 5.046875 -1.5 C 5.628906 -1.5 6.132812 -1.671875 6.5625 -2.015625 C 7 -2.359375 7.296875 -2.789062 7.453125 -3.3125 L 5.375 -3.3125 L 5.375 -4.921875 Z M 9.296875 -4.921875 "/></g></g></g><g fill="#ff8d55" fill-opacity="0.4"><g transform="translate(62.524027, 20.125466)"><g><path d="M 4.671875 -8.53125 C 5.273438 -8.53125 5.832031 -8.414062 6.34375 -8.1875 C 6.863281 -7.96875 7.320312 -7.660156 7.71875 -7.265625 C 8.113281 -6.867188 8.421875 -6.410156 8.640625 -5.890625 C 8.867188 -5.378906 8.984375 -4.820312 8.984375 -4.21875 C 8.984375 -3.625 8.867188 -3.066406 8.640625 -2.546875 C 8.421875 -2.023438 8.113281 -1.566406 7.71875 -1.171875 C 7.320312 -0.785156 6.863281 -0.476562 6.34375 -0.25 C 5.832031 -0.03125 5.273438 0.078125 4.671875 0.078125 C 4.078125 0.078125 3.519531 -0.03125 3 -0.25 C 2.476562 -0.476562 2.019531 -0.785156 1.625 -1.171875 C 1.238281 -1.566406 0.929688 -2.023438 0.703125 -2.546875 C 0.484375 -3.066406 0.375 -3.625 0.375 -4.21875 C 0.375 -4.820312 0.484375 -5.378906 0.703125 -5.890625 C 0.929688 -6.410156 1.238281 -6.867188 1.625 -7.265625 C 2.019531 -7.660156 2.476562 -7.96875 3 -8.1875 C 3.519531 -8.414062 4.078125 -8.53125 4.671875 -8.53125 Z M 4.671875 -6.921875 C 4.179688 -6.921875 3.742188 -6.796875 3.359375 -6.546875 C 2.984375 -6.304688 2.6875 -5.984375 2.46875 -5.578125 C 2.25 -5.171875 2.140625 -4.71875 2.140625 -4.21875 C 2.140625 -3.726562 2.25 -3.273438 2.46875 -2.859375 C 2.6875 -2.453125 2.984375 -2.128906 3.359375 -1.890625 C 3.742188 -1.648438 4.179688 -1.53125 4.671875 -1.53125 C 5.171875 -1.53125 5.613281 -1.648438 6 -1.890625 C 6.382812 -2.128906 6.679688 -2.453125 6.890625 -2.859375 C 7.109375 -3.273438 7.21875 -3.726562 7.21875 -4.21875 C 7.21875 -4.71875 7.109375 -5.171875 6.890625 -5.578125 C 6.679688 -5.984375 6.382812 -6.304688 6 -6.546875 C 5.613281 -6.796875 5.171875 -6.921875 4.671875 -6.921875 Z M 4.671875 -6.921875 "/></g></g></g><g fill="#7cb518" fill-opacity="1"><g transform="translate(53.05097, 19.889557)"><g><path d="M 9.296875 -4.921875 C 9.304688 -4.804688 9.316406 -4.6875 9.328125 -4.5625 C 9.347656 -4.4375 9.359375 -4.316406 9.359375 -4.203125 C 9.359375 -3.609375 9.242188 -3.050781 9.015625 -2.53125 C 8.785156 -2.007812 8.472656 -1.550781 8.078125 -1.15625 C 7.691406 -0.757812 7.238281 -0.445312 6.71875 -0.21875 C 6.195312 0 5.640625 0.109375 5.046875 0.109375 C 4.453125 0.109375 3.894531 0 3.375 -0.21875 C 2.851562 -0.445312 2.394531 -0.757812 2 -1.15625 C 1.601562 -1.550781 1.289062 -2.007812 1.0625 -2.53125 C 0.84375 -3.050781 0.734375 -3.609375 0.734375 -4.203125 C 0.734375 -4.796875 0.84375 -5.351562 1.0625 -5.875 C 1.289062 -6.394531 1.601562 -6.847656 2 -7.234375 C 2.394531 -7.628906 2.851562 -7.941406 3.375 -8.171875 C 3.894531 -8.398438 4.453125 -8.515625 5.046875 -8.515625 C 5.523438 -8.515625 5.976562 -8.4375 6.40625 -8.28125 C 6.84375 -8.132812 7.242188 -7.929688 7.609375 -7.671875 L 6.421875 -6.484375 C 6.023438 -6.753906 5.566406 -6.890625 5.046875 -6.890625 C 4.554688 -6.890625 4.117188 -6.769531 3.734375 -6.53125 C 3.347656 -6.289062 3.046875 -5.96875 2.828125 -5.5625 C 2.609375 -5.15625 2.5 -4.703125 2.5 -4.203125 C 2.5 -3.710938 2.609375 -3.257812 2.828125 -2.84375 C 3.046875 -2.4375 3.347656 -2.109375 3.734375 -1.859375 C 4.117188 -1.617188 4.554688 -1.5 5.046875 -1.5 C 5.628906 -1.5 6.132812 -1.671875 6.5625 -2.015625 C 7 -2.359375 7.296875 -2.789062 7.453125 -3.3125 L 5.375 -3.3125 L 5.375 -4.921875 Z M 9.296875 -4.921875 "/></g></g></g><g fill="#7cb518" fill-opacity="1"><g transform="translate(63.138592, 19.889557)"><g><path d="M 4.671875 -8.53125 C 5.273438 -8.53125 5.832031 -8.414062 6.34375 -8.1875 C 6.863281 -7.96875 7.320312 -7.660156 7.71875 -7.265625 C 8.113281 -6.867188 8.421875 -6.410156 8.640625 -5.890625 C 8.867188 -5.378906 8.984375 -4.820312 8.984375 -4.21875 C 8.984375 -3.625 8.867188 -3.066406 8.640625 -2.546875 C 8.421875 -2.023438 8.113281 -1.566406 7.71875 -1.171875 C 7.320312 -0.785156 6.863281 -0.476562 6.34375 -0.25 C 5.832031 -0.03125 5.273438 0.078125 4.671875 0.078125 C 4.078125 0.078125 3.519531 -0.03125 3 -0.25 C 2.476562 -0.476562 2.019531 -0.785156 1.625 -1.171875 C 1.238281 -1.566406 0.929688 -2.023438 0.703125 -2.546875 C 0.484375 -3.066406 0.375 -3.625 0.375 -4.21875 C 0.375 -4.820312 0.484375 -5.378906 0.703125 -5.890625 C 0.929688 -6.410156 1.238281 -6.867188 1.625 -7.265625 C 2.019531 -7.660156 2.476562 -7.96875 3 -8.1875 C 3.519531 -8.414062 4.078125 -8.53125 4.671875 -8.53125 Z M 4.671875 -6.921875 C 4.179688 -6.921875 3.742188 -6.796875 3.359375 -6.546875 C 2.984375 -6.304688 2.6875 -5.984375 2.46875 -5.578125 C 2.25 -5.171875 2.140625 -4.71875 2.140625 -4.21875 C 2.140625 -3.726562 2.25 -3.273438 2.46875 -2.859375 C 2.6875 -2.453125 2.984375 -2.128906 3.359375 -1.890625 C 3.742188 -1.648438 4.179688 -1.53125 4.671875 -1.53125 C 5.171875 -1.53125 5.613281 -1.648438 6 -1.890625 C 6.382812 -2.128906 6.679688 -2.453125 6.890625 -2.859375 C 7.109375 -3.273438 7.21875 -3.726562 7.21875 -4.21875 C 7.21875 -4.71875 7.109375 -5.171875 6.890625 -5.578125 C 6.679688 -5.984375 6.382812 -6.304688 6 -6.546875 C 5.613281 -6.796875 5.171875 -6.921875 4.671875 -6.921875 Z M 4.671875 -6.921875 "/></g></g></g></svg>